<mxfile host="app.diagrams.net" agent="Mozilla/5.0 (X11; Linux x86_64) AppleWebKit/537.36 (KHTML, like Gecko) Chrome/136.0.0.0 Safari/537.36" version="27.0.5">
  <diagram name="Page-1" id="g3UqPk6g5Lqblqn8YSuC">
    <mxGraphModel dx="1026" dy="566" grid="1" gridSize="10" guides="1" tooltips="1" connect="1" arrows="1" fold="1" page="1" pageScale="1" pageWidth="850" pageHeight="1100" math="0" shadow="0">
      <root>
        <mxCell id="0" />
        <mxCell id="1" parent="0" />
        <mxCell id="OVNSUnDLSR-qPlaHyFdE-1" value="&lt;b&gt;DIAGRAMA DE CONTEXTO&lt;/b&gt;" style="text;html=1;align=center;verticalAlign=middle;whiteSpace=wrap;rounded=0;" parent="1" vertex="1">
          <mxGeometry x="343" y="120" width="165" height="30" as="geometry" />
        </mxCell>
        <mxCell id="WDlb1R9kwCsJJmP67_AE-10" style="edgeStyle=orthogonalEdgeStyle;rounded=0;orthogonalLoop=1;jettySize=auto;html=1;entryX=0;entryY=0.5;entryDx=0;entryDy=0;strokeWidth=3;endArrow=none;startFill=1;curved=1;endFill=0;startArrow=classic;" edge="1" parent="1" source="OVNSUnDLSR-qPlaHyFdE-2" target="WDlb1R9kwCsJJmP67_AE-5">
          <mxGeometry relative="1" as="geometry">
            <Array as="points">
              <mxPoint x="426" y="230" />
            </Array>
          </mxGeometry>
        </mxCell>
        <mxCell id="OVNSUnDLSR-qPlaHyFdE-2" value="SISRIEGOSENS" style="ellipse;whiteSpace=wrap;html=1;" parent="1" vertex="1">
          <mxGeometry x="355.5" y="340" width="140" height="80" as="geometry" />
        </mxCell>
        <mxCell id="WDlb1R9kwCsJJmP67_AE-4" value="EncargadoCampo" style="rounded=1;whiteSpace=wrap;html=1;" vertex="1" parent="1">
          <mxGeometry x="100" y="200" width="120" height="60" as="geometry" />
        </mxCell>
        <mxCell id="WDlb1R9kwCsJJmP67_AE-5" value="EncargadoRiego" style="rounded=1;whiteSpace=wrap;html=1;" vertex="1" parent="1">
          <mxGeometry x="600" y="200" width="120" height="60" as="geometry" />
        </mxCell>
        <mxCell id="WDlb1R9kwCsJJmP67_AE-6" value="Raspberry" style="rounded=1;whiteSpace=wrap;html=1;" vertex="1" parent="1">
          <mxGeometry x="100" y="560" width="120" height="60" as="geometry" />
        </mxCell>
        <mxCell id="WDlb1R9kwCsJJmP67_AE-7" value="HomeAssitant" style="rounded=1;whiteSpace=wrap;html=1;" vertex="1" parent="1">
          <mxGeometry x="600" y="550" width="120" height="60" as="geometry" />
        </mxCell>
        <mxCell id="WDlb1R9kwCsJJmP67_AE-13" style="edgeStyle=orthogonalEdgeStyle;rounded=0;orthogonalLoop=1;jettySize=auto;html=1;entryX=0.5;entryY=1;entryDx=0;entryDy=0;strokeWidth=3;endArrow=classic;startFill=0;curved=1;exitX=1;exitY=0.5;exitDx=0;exitDy=0;endFill=1;" edge="1" parent="1" source="OVNSUnDLSR-qPlaHyFdE-2" target="WDlb1R9kwCsJJmP67_AE-5">
          <mxGeometry relative="1" as="geometry">
            <mxPoint x="540" y="420" as="sourcePoint" />
            <mxPoint x="714" y="310" as="targetPoint" />
            <Array as="points">
              <mxPoint x="660" y="380" />
            </Array>
          </mxGeometry>
        </mxCell>
        <mxCell id="WDlb1R9kwCsJJmP67_AE-14" style="edgeStyle=orthogonalEdgeStyle;rounded=0;orthogonalLoop=1;jettySize=auto;html=1;entryX=0;entryY=0.5;entryDx=0;entryDy=0;strokeWidth=3;endArrow=none;startFill=1;curved=1;exitX=0.5;exitY=0;exitDx=0;exitDy=0;startArrow=classic;" edge="1" parent="1" source="WDlb1R9kwCsJJmP67_AE-6" target="OVNSUnDLSR-qPlaHyFdE-2">
          <mxGeometry relative="1" as="geometry">
            <mxPoint x="160" y="530" as="sourcePoint" />
            <mxPoint x="334" y="420" as="targetPoint" />
            <Array as="points">
              <mxPoint x="160" y="380" />
            </Array>
          </mxGeometry>
        </mxCell>
        <mxCell id="WDlb1R9kwCsJJmP67_AE-16" style="edgeStyle=orthogonalEdgeStyle;rounded=0;orthogonalLoop=1;jettySize=auto;html=1;strokeWidth=3;endArrow=classic;startFill=0;curved=1;exitX=1;exitY=0.5;exitDx=0;exitDy=0;endFill=1;" edge="1" parent="1" source="WDlb1R9kwCsJJmP67_AE-6">
          <mxGeometry relative="1" as="geometry">
            <mxPoint x="261" y="540" as="sourcePoint" />
            <mxPoint x="425" y="420" as="targetPoint" />
            <Array as="points">
              <mxPoint x="425" y="590" />
            </Array>
          </mxGeometry>
        </mxCell>
        <mxCell id="WDlb1R9kwCsJJmP67_AE-17" style="edgeStyle=orthogonalEdgeStyle;rounded=0;orthogonalLoop=1;jettySize=auto;html=1;entryX=0.463;entryY=0.005;entryDx=0;entryDy=0;strokeWidth=3;endArrow=block;startFill=0;curved=1;exitX=1;exitY=0.5;exitDx=0;exitDy=0;entryPerimeter=0;endFill=1;" edge="1" parent="1" source="WDlb1R9kwCsJJmP67_AE-4" target="OVNSUnDLSR-qPlaHyFdE-2">
          <mxGeometry relative="1" as="geometry">
            <mxPoint x="230.03" y="230" as="sourcePoint" />
            <mxPoint x="404.03" y="120" as="targetPoint" />
            <Array as="points">
              <mxPoint x="420" y="230" />
            </Array>
          </mxGeometry>
        </mxCell>
        <mxCell id="WDlb1R9kwCsJJmP67_AE-18" style="edgeStyle=orthogonalEdgeStyle;rounded=0;orthogonalLoop=1;jettySize=auto;html=1;entryX=0.02;entryY=0.367;entryDx=0;entryDy=0;strokeWidth=3;endArrow=none;startFill=1;curved=1;exitX=1;exitY=0.5;exitDx=0;exitDy=0;entryPerimeter=0;startArrow=classic;" edge="1" parent="1" target="OVNSUnDLSR-qPlaHyFdE-2">
          <mxGeometry relative="1" as="geometry">
            <mxPoint x="150" y="260" as="sourcePoint" />
            <mxPoint x="314" y="140" as="targetPoint" />
            <Array as="points">
              <mxPoint x="150" y="370" />
            </Array>
          </mxGeometry>
        </mxCell>
        <mxCell id="WDlb1R9kwCsJJmP67_AE-19" style="edgeStyle=orthogonalEdgeStyle;rounded=0;orthogonalLoop=1;jettySize=auto;html=1;entryX=0.5;entryY=0;entryDx=0;entryDy=0;strokeWidth=3;endArrow=classic;startFill=0;curved=1;exitX=1;exitY=0.5;exitDx=0;exitDy=0;endFill=1;" edge="1" parent="1" target="WDlb1R9kwCsJJmP67_AE-7">
          <mxGeometry relative="1" as="geometry">
            <mxPoint x="495.5" y="390" as="sourcePoint" />
            <mxPoint x="695.5" y="500" as="targetPoint" />
            <Array as="points">
              <mxPoint x="660" y="390" />
            </Array>
          </mxGeometry>
        </mxCell>
        <mxCell id="WDlb1R9kwCsJJmP67_AE-20" style="edgeStyle=orthogonalEdgeStyle;rounded=0;orthogonalLoop=1;jettySize=auto;html=1;entryX=0;entryY=0.5;entryDx=0;entryDy=0;strokeWidth=3;endArrow=none;startFill=1;curved=1;exitX=1;exitY=0.5;exitDx=0;exitDy=0;startArrow=classic;" edge="1" parent="1" target="WDlb1R9kwCsJJmP67_AE-7">
          <mxGeometry relative="1" as="geometry">
            <mxPoint x="430" y="420" as="sourcePoint" />
            <mxPoint x="638" y="529" as="targetPoint" />
            <Array as="points">
              <mxPoint x="430" y="580" />
            </Array>
          </mxGeometry>
        </mxCell>
        <mxCell id="WDlb1R9kwCsJJmP67_AE-21" value="&lt;span style=&quot;background-color: light-dark(#ffffff, var(--ge-dark-color, #121212));&quot;&gt;Inicia el riego de forma manual&lt;/span&gt;" style="text;html=1;align=center;verticalAlign=middle;whiteSpace=wrap;rounded=0;shadow=0;" vertex="1" parent="1">
          <mxGeometry x="410" y="240" width="142" height="30" as="geometry" />
        </mxCell>
        <mxCell id="WDlb1R9kwCsJJmP67_AE-23" value="&lt;span style=&quot;background-color: light-dark(#ffffff, var(--ge-dark-color, #121212));&quot;&gt;Acciona el sistema de Riego&lt;/span&gt;" style="text;html=1;align=center;verticalAlign=middle;whiteSpace=wrap;rounded=0;shadow=0;" vertex="1" parent="1">
          <mxGeometry x="550" y="340" width="160" height="30" as="geometry" />
        </mxCell>
        <mxCell id="WDlb1R9kwCsJJmP67_AE-24" value="&lt;span style=&quot;background-color: light-dark(#ffffff, var(--ge-dark-color, #121212));&quot;&gt;Revisa Lectura de Sensores&lt;/span&gt;" style="text;html=1;align=center;verticalAlign=middle;whiteSpace=wrap;rounded=0;shadow=0;" vertex="1" parent="1">
          <mxGeometry x="250" y="240" width="142" height="30" as="geometry" />
        </mxCell>
        <mxCell id="WDlb1R9kwCsJJmP67_AE-25" value="&lt;span style=&quot;background-color: light-dark(#ffffff, var(--ge-dark-color, #121212));&quot;&gt;Muestra lectura de Sensores en tiempo Real&lt;/span&gt;" style="text;html=1;align=center;verticalAlign=middle;whiteSpace=wrap;rounded=0;shadow=0;" vertex="1" parent="1">
          <mxGeometry x="130" y="330" width="142" height="30" as="geometry" />
        </mxCell>
        <mxCell id="WDlb1R9kwCsJJmP67_AE-26" value="&lt;span style=&quot;background-color: light-dark(#ffffff, var(--ge-dark-color, #121212));&quot;&gt;Envía Lectura de sensores cada 5min&lt;/span&gt;" style="text;html=1;align=center;verticalAlign=middle;whiteSpace=wrap;rounded=0;shadow=0;" vertex="1" parent="1">
          <mxGeometry x="130" y="420" width="142" height="30" as="geometry" />
        </mxCell>
        <mxCell id="WDlb1R9kwCsJJmP67_AE-27" value="&lt;span style=&quot;background-color: light-dark(#ffffff, var(--ge-dark-color, #121212));&quot;&gt;Almacena Información&lt;/span&gt;" style="text;html=1;align=center;verticalAlign=middle;whiteSpace=wrap;rounded=0;shadow=0;" vertex="1" parent="1">
          <mxGeometry x="283" y="530" width="142" height="30" as="geometry" />
        </mxCell>
        <mxCell id="WDlb1R9kwCsJJmP67_AE-28" value="&lt;span style=&quot;background-color: light-dark(#ffffff, var(--ge-dark-color, #121212));&quot;&gt;Envía alertas de inicio de proceso&amp;nbsp;&lt;/span&gt;" style="text;html=1;align=center;verticalAlign=middle;whiteSpace=wrap;rounded=0;shadow=0;" vertex="1" parent="1">
          <mxGeometry x="559" y="430" width="142" height="30" as="geometry" />
        </mxCell>
        <mxCell id="WDlb1R9kwCsJJmP67_AE-29" value="&lt;span style=&quot;background-color: light-dark(#ffffff, var(--ge-dark-color, #121212));&quot;&gt;Confirma el envío notificación&lt;/span&gt;" style="text;html=1;align=center;verticalAlign=middle;whiteSpace=wrap;rounded=0;shadow=0;" vertex="1" parent="1">
          <mxGeometry x="430" y="535" width="142" height="30" as="geometry" />
        </mxCell>
        <mxCell id="WDlb1R9kwCsJJmP67_AE-30" value="" style="group" vertex="1" connectable="0" parent="1">
          <mxGeometry x="75" y="10" width="700" height="70" as="geometry" />
        </mxCell>
        <mxCell id="WDlb1R9kwCsJJmP67_AE-31" value="&lt;div style=&quot;-webkit-user-drag: none; -webkit-tap-highlight-color: transparent; margin: 0px; padding: 0px; user-select: text; clear: both; cursor: text; overflow: visible; position: relative; direction: ltr; color: rgb(0, 0, 0); font-family: &amp;quot;Segoe UI&amp;quot;, &amp;quot;Segoe UI Web&amp;quot;, Arial, Verdana, sans-serif; text-align: start;&quot; class=&quot;OutlineElement Ltr SCXW107485866 BCX0&quot;&gt;&lt;p style=&quot;-webkit-user-drag: none; -webkit-tap-highlight-color: transparent; margin: 5.26667px 0px 0px; padding: 0px; user-select: text; overflow-wrap: break-word; white-space-collapse: preserve; vertical-align: baseline; font-kerning: none; color: windowtext; text-align: center;&quot; class=&quot;Paragraph SCXW107485866 BCX0&quot;&gt;&lt;span style=&quot;-webkit-user-drag: none; -webkit-tap-highlight-color: transparent; margin: 0px; padding: 0px; user-select: text; font-size: 16pt; font-style: italic; line-height: 25px; font-family: Arial, Arial_EmbeddedFont, Arial_MSFontService, sans-serif; font-weight: bold; background-color: light-dark(#ffffff, var(--ge-dark-color, #121212)); font-variant-ligatures: none !important;&quot; class=&quot;TextRun SCXW107485866 BCX0&quot; lang=&quot;ES-ES&quot; data-contrast=&quot;auto&quot;&gt;Prototipo para el Control de Humedad por Sensores&lt;/span&gt;&lt;/p&gt;&lt;p style=&quot;-webkit-user-drag: none; -webkit-tap-highlight-color: transparent; margin: 5.26667px 0px 0px; padding: 0px; user-select: text; overflow-wrap: break-word; white-space-collapse: preserve; vertical-align: baseline; font-kerning: none; color: windowtext; text-align: center;&quot; class=&quot;Paragraph SCXW107485866 BCX0&quot;&gt;&lt;span style=&quot;-webkit-user-drag: none; -webkit-tap-highlight-color: transparent; margin: 0px; padding: 0px; user-select: text; font-size: 16pt; font-style: italic; line-height: 25px; font-family: Arial, Arial_EmbeddedFont, Arial_MSFontService, sans-serif; font-weight: bold; background-color: light-dark(#ffffff, var(--ge-dark-color, #121212)); font-variant-ligatures: none !important;&quot; class=&quot;TextRun SCXW107485866 BCX0&quot; lang=&quot;ES-ES&quot; data-contrast=&quot;auto&quot;&gt;SISRIEGOSENS &lt;/span&gt;&lt;/p&gt;&lt;/div&gt;" style="text;html=1;align=center;verticalAlign=middle;whiteSpace=wrap;rounded=0;fillColor=default;fillStyle=dashed;" vertex="1" parent="WDlb1R9kwCsJJmP67_AE-30">
          <mxGeometry width="700" height="60" as="geometry" />
        </mxCell>
        <mxCell id="WDlb1R9kwCsJJmP67_AE-32" value="" style="endArrow=none;html=1;rounded=0;" edge="1" parent="WDlb1R9kwCsJJmP67_AE-30">
          <mxGeometry width="50" height="50" relative="1" as="geometry">
            <mxPoint x="75" y="70" as="sourcePoint" />
            <mxPoint x="615" y="70" as="targetPoint" />
            <Array as="points">
              <mxPoint x="355" y="70" />
            </Array>
          </mxGeometry>
        </mxCell>
      </root>
    </mxGraphModel>
  </diagram>
</mxfile>
